# xmcd CD database file generated by OrangeCD 5.2
#
# Track frame offsets:
#	150
#	16122
#	34664
#	50963
#	68396
#	82205
#	101550
#	116538
#	136222
#	150883
#	167823
#
# Disc length: 2441 seconds
#
# Revision: 0
# Processed by: cddbd v1.5.2PL0 Copyright (c) Steve Scherf et al.
# Submitted via: OrangeCD 5.2
#
DISCID=8309870b
DTITLE=Blake Shelton - Pure BS
DYEAR=2007
DGENRE=Country
TTITLE0=This can't be good
TTITLE1=Don'[t make me
TTITLE2=The more I drink
TTITLE3=I don't care
TTITLE4=She don't love me
TTITLE5=Back there again
TTITLE6=It ain't easy bein' me
TTITLE7=What I wouldn't give
TTITLE8=I have been lonely
TTITLE9=She can't get that
TTITLE10=The last country song
EXTD=
EXTT0=
EXTT1=
EXTT2=
EXTT3=
EXTT4=
EXTT5=
EXTT6=
EXTT7=
EXTT8=
EXTT9=
EXTT10=
PLAYORDER=
